%FSDAX33Y33*%
%MOMM*%
%SFA1B1*%

%IPPOS*%
%AMD1002*
%
%ADD22C,2.600000*%
%ADD25C,2.000001*%
%ADD30C,0.499999*%
%ADD31C,1.000001*%
%ADD33R,1.350000X1.350000*%
%ADD34C,1.350000*%
%ADD35C,1.799999*%
%ADD36R,1.799999X1.799999*%
%ADD37R,1.500000X1.500000*%
%ADD38C,1.500000*%
%ADD39C,1.599997*%
%ADD40R,1.599997X1.599997*%
%ADD41R,2.000001X2.000001*%
%ADD42C,1.270000*%
%LNfilm_bottom_layer-1*%
%LPD*%
G36*
X101600Y076200D02*
X000000D01*
Y000000*
X101600*
Y076200*
G37*
%LNfilm_bottom_layer-2*%
%LPC*%
G36*
X011512Y063195D02*
X011606Y063117D01*
X011794Y062889*
X011933Y062628*
X012019Y062346*
X012048Y062052*
X012019Y061758*
X011933Y061475*
X011794Y061214*
X011606Y060986*
X011378Y060798*
X011117Y060659*
X010835Y060573*
X010541Y060544*
X010246Y060573*
X009964Y060659*
X009703Y060798*
X009475Y060986*
X009287Y061214*
X009148Y061475*
X009144Y061490*
X009017Y061471*
Y014754*
X009144Y014735*
X009148Y014749*
X009287Y015010*
X009475Y015238*
X009703Y015426*
X009964Y015565*
X010246Y015651*
X010541Y015680*
X010835Y015651*
X011117Y015565*
X011378Y015426*
X011606Y015238*
X011794Y015010*
X011933Y014749*
X012019Y014467*
X012048Y014173*
X012019Y013879*
X011933Y013596*
X011794Y013335*
X011606Y013107*
X011512Y013030*
X011558Y012903*
X090295*
X090341Y013030*
X090247Y013107*
X090059Y013335*
X089920Y013596*
X089834Y013879*
X089805Y014173*
X089834Y014467*
X089920Y014749*
X090059Y015010*
X090247Y015238*
X090475Y015426*
X090736Y015565*
X091018Y015651*
X091313Y015680*
X091607Y015651*
X091889Y015565*
X092150Y015426*
X092378Y015238*
X092456Y015144*
X092583Y015190*
Y061035*
X092456Y061080*
X092378Y060986*
X092150Y060798*
X091889Y060659*
X091607Y060573*
X091313Y060544*
X091018Y060573*
X090736Y060659*
X090475Y060798*
X090247Y060986*
X090059Y061214*
X089920Y061475*
X089834Y061758*
X089805Y062052*
X089834Y062346*
X089920Y062628*
X090059Y062889*
X090247Y063117*
X090341Y063195*
X090295Y063322*
X011558*
X011512Y063195*
G37*
%LNfilm_bottom_layer-3*%
%LPD*%
G36*
X039845Y020660D02*
X042195D01*
Y018310*
X039845*
Y020660*
G37*
G36*
X046055Y019104D02*
Y017983D01*
X044933*
X044960Y018183*
X045086Y018488*
X045287Y018750*
X045549Y018951*
X045854Y019077*
X046055Y019104*
G37*
G36*
X032860Y020660D02*
X035210D01*
Y018310*
X032860*
Y020660*
G37*
G36*
X028722Y020269D02*
X029591D01*
Y019400*
X029455Y019418*
X029211Y019519*
X029001Y019680*
X028840Y019889*
X028739Y020134*
X028722Y020269*
G37*
G36*
X029845D02*
X030713D01*
X030696Y020134*
X030594Y019889*
X030434Y019680*
X030224Y019519*
X029980Y019418*
X029845Y019400*
Y020269*
G37*
G36*
X046309Y019104D02*
X046509Y019077D01*
X046814Y018951*
X047076Y018750*
X047277Y018488*
X047403Y018183*
X047430Y017983*
X046309*
Y019104*
G37*
G36*
X071882Y017864D02*
Y016945D01*
X070962*
X070982Y017093*
X071088Y017349*
X071257Y017569*
X071477Y017738*
X071733Y017845*
X071882Y017864*
G37*
G36*
X072136D02*
X072284Y017845D01*
X072540Y017738*
X072760Y017569*
X072929Y017349*
X073035Y017093*
X073055Y016945*
X072136*
Y017864*
G37*
G36*
X017653Y017643D02*
X017992Y017598D01*
X018308Y017467*
X018580Y017259*
X018766Y017017*
X018893Y017051*
Y017632*
X021492*
Y015032*
X018893*
Y015613*
X018766Y015647*
X018580Y015405*
X018308Y015196*
X017992Y015065*
X017653Y015020*
X017313Y015065*
X016997Y015196*
X016725Y015405*
X016517Y015676*
X016386Y015992*
X016341Y016332*
X016386Y016671*
X016517Y016987*
X016725Y017259*
X016997Y017467*
X017313Y017598*
X017653Y017643*
G37*
G36*
X064262Y017991D02*
Y017072D01*
X063342*
X063362Y017220*
X063468Y017476*
X063637Y017696*
X063857Y017865*
X064113Y017972*
X064262Y017991*
G37*
G36*
X064516D02*
X064664Y017972D01*
X064920Y017865*
X065140Y017696*
X065309Y017476*
X065415Y017220*
X065435Y017072*
X064516*
Y017991*
G37*
G36*
X029845Y021392D02*
X029980Y021374D01*
X030224Y021273*
X030434Y021112*
X030594Y020902*
X030696Y020658*
X030713Y020523*
X029845*
Y021392*
G37*
G36*
Y027889D02*
X030713D01*
X030696Y027754*
X030594Y027509*
X030434Y027300*
X030224Y027139*
X029980Y027038*
X029845Y027020*
Y027889*
G37*
G36*
X050966Y027698D02*
X051319Y027664D01*
X051659Y027561*
X051971Y027394*
X052245Y027169*
X052470Y026895*
X052638Y026582*
X052740Y026243*
X052775Y025890*
X052740Y025537*
X052638Y025198*
X052470Y024885*
X052245Y024611*
X051971Y024386*
X051659Y024219*
X051319Y024116*
X050966Y024081*
X050614Y024116*
X050274Y024219*
X049962Y024386*
X049688Y024611*
X049463Y024885*
X049295Y025198*
X049193Y025537*
X049158Y025890*
X049193Y026243*
X049295Y026582*
X049463Y026895*
X049688Y027169*
X049962Y027394*
X050274Y027561*
X050614Y027664*
X050966Y027698*
G37*
G36*
X028722Y027889D02*
X029591D01*
Y027020*
X029455Y027038*
X029211Y027139*
X029001Y027300*
X028840Y027509*
X028739Y027754*
X028722Y027889*
G37*
G36*
X039010Y028334D02*
X040132D01*
X040105Y028133*
X039979Y027828*
X039778Y027566*
X039516Y027365*
X039211Y027239*
X039010Y027213*
Y028334*
G37*
G36*
X042610D02*
X043732D01*
X043705Y028133*
X043579Y027828*
X043378Y027566*
X043116Y027365*
X042811Y027239*
X042610Y027213*
Y028334*
G37*
G36*
X014986Y024998D02*
Y024079D01*
X014066*
X014086Y024227*
X014192Y024483*
X014361Y024703*
X014581Y024872*
X014837Y024979*
X014986Y024998*
G37*
G36*
X089535Y045532D02*
X089861Y045490D01*
X090165Y045364*
X090426Y045163*
X090626Y044902*
X090752Y044598*
X090795Y044272*
X090752Y043945*
X090626Y043641*
X090426Y043380*
X090165Y043180*
X089993Y043109*
X090018Y042982*
X090784*
Y040482*
X088284*
Y042982*
X089051*
X089076Y043109*
X088904Y043180*
X088643Y043380*
X088639Y043386*
X088605Y043418*
X088577Y043441*
X088551Y043460*
X088526Y043475*
X088502Y043486*
X088479Y043495*
X088456Y043502*
X088432Y043507*
X088406Y043510*
X088357Y043512*
X088345Y043515*
X087181*
X085211Y041545*
Y021898*
X086203*
Y023198*
X088802*
Y020598*
X088222*
X088187Y020471*
X088430Y020285*
X088638Y020013*
X088769Y019697*
X088814Y019358*
X088769Y019018*
X088638Y018702*
X088430Y018431*
X088158Y018222*
X087999Y018156*
Y018019*
X088158Y017953*
X088430Y017745*
X088638Y017473*
X088769Y017157*
X088814Y016818*
X088769Y016478*
X088638Y016162*
X088430Y015891*
X088158Y015682*
X087842Y015551*
X087503Y015506*
X087163Y015551*
X086847Y015682*
X086575Y015891*
X086367Y016162*
X086236Y016478*
X086191Y016818*
X086236Y017157*
X086367Y017473*
X086575Y017745*
X086847Y017953*
X087006Y018019*
Y018156*
X086847Y018222*
X086575Y018431*
X086569Y018439*
X086529Y018477*
X086493Y018508*
X086459Y018533*
X086427Y018552*
X086398Y018567*
X086370Y018579*
X086344Y018587*
X086318Y018593*
X086291Y018596*
X086241Y018598*
X086229Y018601*
X086197*
X082328Y014733*
X082171Y014613*
X081989Y014537*
X081793Y014511*
X077680*
X077484Y014537*
X077301Y014613*
X077145Y014733*
X073277Y018600*
X073270Y018598*
X073220Y018596*
X073193Y018593*
X073167Y018587*
X073141Y018579*
X073113Y018567*
X073084Y018552*
X073052Y018533*
X073018Y018508*
X072982Y018477*
X072942Y018439*
X072936Y018431*
X072664Y018222*
X072348Y018091*
X072009Y018046*
X071669Y018091*
X071353Y018222*
X071081Y018431*
X070873Y018702*
X070742Y019018*
X070697Y019358*
X070742Y019697*
X070873Y020013*
X071081Y020285*
X071324Y020471*
X071289Y020598*
X070709*
Y022542*
X070591Y022590*
X066951Y018950*
X066951Y018950*
X066794Y018830*
X066611Y018754*
X066416Y018728*
X066416*
X065662*
X065650Y018725*
X065600Y018723*
X065573Y018720*
X065547Y018714*
X065521Y018706*
X065493Y018694*
X065464Y018679*
X065432Y018660*
X065398Y018635*
X065362Y018604*
X065322Y018566*
X065316Y018558*
X065044Y018349*
X064728Y018218*
X064389Y018173*
X064049Y018218*
X063733Y018349*
X063461Y018558*
X063253Y018829*
X063122Y019145*
X063077Y019485*
X063122Y019824*
X063253Y020140*
X063461Y020412*
X063704Y020598*
X063669Y020725*
X063089*
Y023325*
X065688*
Y022785*
X065699Y022784*
X065713Y022781*
X067228*
X069929Y025482*
X070086Y025603*
X070269Y025678*
X070464Y025704*
X073987*
X073987Y025704*
X074183Y025678*
X074365Y025603*
X074522Y025482*
X077223Y022781*
X078431*
X078445Y022784*
X078456Y022785*
Y023198*
X078996*
X078996Y023208*
X078999Y023222*
Y024747*
X078996Y024760*
X078995Y024806*
X078992Y024832*
X078988Y024853*
X078984Y024869*
X078980Y024882*
X078976Y024893*
X078971Y024901*
X078967Y024908*
X078961Y024915*
X078939Y024939*
X078933Y024948*
X078764Y025168*
X078650Y025444*
X078611Y025741*
X078650Y026037*
X078764Y026313*
X078946Y026550*
X079183Y026732*
X079459Y026846*
X079756Y026885*
X080052Y026846*
X080328Y026732*
X080565Y026550*
X080747Y026313*
X080861Y026037*
X080900Y025741*
X080861Y025444*
X080747Y025168*
X080578Y024948*
X080572Y024939*
X080550Y024915*
X080544Y024908*
X080540Y024901*
X080535Y024893*
X080531Y024882*
X080527Y024869*
X080522Y024853*
X080519Y024832*
X080516Y024806*
X080515Y024760*
X080512Y024747*
Y023222*
X080515Y023208*
X080515Y023198*
X081055*
Y020598*
X080475*
X080440Y020471*
X080683Y020285*
X080689Y020277*
X080729Y020238*
X080765Y020208*
X080799Y020183*
X080831Y020163*
X080860Y020148*
X080888Y020137*
X080914Y020128*
X080940Y020123*
X080967Y020119*
X081017Y020117*
X081029Y020114*
X082214*
X083698Y021598*
Y041859*
Y041859*
X083711Y041957*
X083724Y042054*
X083799Y042237*
X083920Y042394*
X086333Y044807*
X086489Y044927*
X086672Y045002*
X086868Y045028*
X088345*
X088357Y045031*
X088406Y045033*
X088432Y045036*
X088456Y045041*
X088479Y045048*
X088502Y045057*
X088526Y045069*
X088551Y045084*
X088577Y045102*
X088605Y045125*
X088639Y045158*
X088643Y045163*
X088904Y045364*
X089208Y045490*
X089535Y045532*
G37*
G36*
X029591Y021392D02*
Y020523D01*
X028722*
X028739Y020658*
X028840Y020902*
X029001Y021112*
X029211Y021273*
X029455Y021374*
X029591Y021392*
G37*
G36*
X015240Y023825D02*
X016159D01*
X016139Y023677*
X016033Y023420*
X015864Y023200*
X015644Y023031*
X015388Y022925*
X015240Y022905*
Y023825*
G37*
G36*
Y024998D02*
X015388Y024979D01*
X015644Y024872*
X015864Y024703*
X016033Y024483*
X016139Y024227*
X016159Y024079*
X015240*
Y024998*
G37*
G36*
X014066Y023825D02*
X014986D01*
Y022905*
X014837Y022925*
X014581Y023031*
X014361Y023200*
X014192Y023420*
X014086Y023677*
X014066Y023825*
G37*
G36*
X044933Y017729D02*
X046055D01*
Y016608*
X045854Y016634*
X045549Y016760*
X045287Y016961*
X045086Y017223*
X044960Y017528*
X044933Y017729*
G37*
G36*
X041148Y015405D02*
X041263Y015390D01*
X041489Y015296*
X041683Y015147*
X041832Y014953*
X041926Y014727*
X041941Y014612*
X041148*
Y015405*
G37*
G36*
X028078Y014935D02*
X028956D01*
Y014058*
X028078*
Y014935*
G37*
G36*
X034163Y015405D02*
X034278Y015390D01*
X034504Y015296*
X034698Y015147*
X034847Y014953*
X034941Y014727*
X034956Y014612*
X034163*
Y015405*
G37*
G36*
X033909D02*
Y014612D01*
X033115*
X033130Y014727*
X033224Y014953*
X033373Y015147*
X033567Y015296*
X033793Y015390*
X033909Y015405*
G37*
G36*
X040894D02*
Y014612D01*
X040100*
X040115Y014727*
X040209Y014953*
X040358Y015147*
X040552Y015296*
X040778Y015390*
X040894Y015405*
G37*
G36*
X029210Y014935D02*
X030086D01*
Y014058*
X029210*
Y014935*
G37*
G36*
X034163Y014358D02*
X034956D01*
X034941Y014242*
X034847Y014016*
X034698Y013822*
X034504Y013673*
X034278Y013580*
X034163Y013564*
Y014358*
G37*
G36*
X041148D02*
X041941D01*
X041926Y014242*
X041832Y014016*
X041683Y013822*
X041489Y013673*
X041263Y013580*
X041148Y013564*
Y014358*
G37*
G36*
X040100D02*
X040894D01*
Y013564*
X040778Y013580*
X040552Y013673*
X040358Y013822*
X040209Y014016*
X040115Y014242*
X040100Y014358*
G37*
G36*
X026543Y016322D02*
X026869Y016280D01*
X027173Y016154*
X027434Y015953*
X027634Y015692*
X027760Y015388*
X027803Y015062*
X027760Y014735*
X027634Y014431*
X027434Y014170*
X027173Y013970*
X026869Y013844*
X026543Y013801*
X026216Y013844*
X025912Y013970*
X025651Y014170*
X025451Y014431*
X025325Y014735*
X025282Y015062*
X025325Y015388*
X025451Y015692*
X025651Y015953*
X025912Y016154*
X026216Y016280*
X026543Y016322*
G37*
G36*
X033115Y014358D02*
X033909D01*
Y013564*
X033793Y013580*
X033567Y013673*
X033373Y013822*
X033224Y014016*
X033130Y014242*
X033115Y014358*
G37*
G36*
X029210Y016066D02*
X030086D01*
Y015189*
X029210*
Y016066*
G37*
G36*
X055141Y019356D02*
X058141D01*
Y016356*
X055141*
Y019356*
G37*
G36*
X063342Y016818D02*
X064262D01*
Y015898*
X064113Y015918*
X063857Y016024*
X063637Y016193*
X063468Y016413*
X063362Y016670*
X063342Y016818*
G37*
G36*
X015240Y017378D02*
X015388Y017359D01*
X015644Y017252*
X015864Y017083*
X016033Y016863*
X016139Y016607*
X016159Y016459*
X015240*
Y017378*
G37*
G36*
X046309Y017729D02*
X047430D01*
X047403Y017528*
X047277Y017223*
X047076Y016961*
X046814Y016760*
X046509Y016634*
X046309Y016608*
Y017729*
G37*
G36*
X014986Y017378D02*
Y016459D01*
X014066*
X014086Y016607*
X014192Y016863*
X014361Y017083*
X014581Y017252*
X014837Y017359*
X014986Y017378*
G37*
G36*
X064516Y016818D02*
X065435D01*
X065415Y016670*
X065309Y016413*
X065140Y016193*
X064920Y016024*
X064664Y015918*
X064516Y015898*
Y016818*
G37*
G36*
X015240Y016205D02*
X016159D01*
X016139Y016057*
X016033Y015800*
X015864Y015580*
X015644Y015411*
X015388Y015305*
X015240Y015285*
Y016205*
G37*
G36*
X028078Y016066D02*
X028956D01*
Y015189*
X028078*
Y016066*
G37*
G36*
X014066Y016205D02*
X014986D01*
Y015285*
X014837Y015305*
X014581Y015411*
X014361Y015580*
X014192Y015800*
X014086Y016057*
X014066Y016205*
G37*
G36*
X070962Y016691D02*
X071882D01*
Y015771*
X071733Y015791*
X071477Y015897*
X071257Y016066*
X071088Y016286*
X070982Y016543*
X070962Y016691*
G37*
G36*
X072136D02*
X073055D01*
X073035Y016543*
X072929Y016286*
X072760Y016066*
X072540Y015897*
X072284Y015791*
X072136Y015771*
Y016691*
G37*
G36*
X037635Y028334D02*
X038756D01*
Y027213*
X038556Y027239*
X038251Y027365*
X037989Y027566*
X037788Y027828*
X037662Y028133*
X037635Y028334*
G37*
G36*
X029591Y039045D02*
Y038176D01*
X028722*
X028739Y038311*
X028840Y038555*
X029001Y038765*
X029211Y038926*
X029455Y039027*
X029591Y039045*
G37*
G36*
X029845D02*
X029980Y039027D01*
X030224Y038926*
X030434Y038765*
X030594Y038555*
X030696Y038311*
X030713Y038176*
X029845*
Y039045*
G37*
G36*
X089662Y039172D02*
X089797Y039154D01*
X090041Y039053*
X090251Y038892*
X090411Y038682*
X090513Y038438*
X090530Y038303*
X089662*
Y039172*
G37*
G36*
X089408D02*
Y038303D01*
X088539*
X088556Y038438*
X088657Y038682*
X088818Y038892*
X089028Y039053*
X089272Y039154*
X089408Y039172*
G37*
G36*
X082042D02*
X082177Y039154D01*
X082421Y039053*
X082631Y038892*
X082791Y038682*
X082893Y038438*
X082910Y038303*
X082042*
Y039172*
G37*
G36*
X080919Y038049D02*
X081788D01*
Y037180*
X081652Y037198*
X081408Y037299*
X081198Y037460*
X081037Y037669*
X080936Y037914*
X080919Y038049*
G37*
G36*
X028722Y037922D02*
X029591D01*
Y037053*
X029455Y037071*
X029211Y037172*
X029001Y037333*
X028840Y037542*
X028739Y037787*
X028722Y037922*
G37*
G36*
X029845D02*
X030713D01*
X030696Y037787*
X030594Y037542*
X030434Y037333*
X030224Y037172*
X029980Y037071*
X029845Y037053*
Y037922*
G37*
G36*
X089662Y038049D02*
X090530D01*
X090513Y037914*
X090411Y037669*
X090251Y037460*
X090041Y037299*
X089797Y037198*
X089662Y037180*
Y038049*
G37*
G36*
X088539D02*
X089408D01*
Y037180*
X089272Y037198*
X089028Y037299*
X088818Y037460*
X088657Y037669*
X088556Y037914*
X088539Y038049*
G37*
G36*
X082042D02*
X082910D01*
X082893Y037914*
X082791Y037669*
X082631Y037460*
X082421Y037299*
X082177Y037198*
X082042Y037180*
Y038049*
G37*
G36*
X081788Y039172D02*
Y038303D01*
X080919*
X080936Y038438*
X081037Y038682*
X081198Y038892*
X081408Y039053*
X081652Y039154*
X081788Y039172*
G37*
G36*
X015621Y058867D02*
X015947Y058825D01*
X016251Y058699*
X016512Y058498*
X016712Y058237*
X016825Y057964*
X016826Y057964*
X016955*
X016956Y057964*
X017069Y058237*
X017269Y058498*
X017530Y058699*
X017834Y058825*
X018161Y058867*
X018487Y058825*
X018791Y058699*
X019052Y058498*
X019252Y058237*
X019365Y057964*
X019366Y057964*
X019495*
X019496Y057964*
X019609Y058237*
X019809Y058498*
X020070Y058699*
X020374Y058825*
X020701Y058867*
X021027Y058825*
X021331Y058699*
X021592Y058498*
X021792Y058237*
X021918Y057933*
X021961Y057607*
X021918Y057280*
X021792Y056976*
X021592Y056715*
X021331Y056515*
X021027Y056389*
X020701Y056346*
X020374Y056389*
X020070Y056515*
X019809Y056715*
X019609Y056976*
X019496Y057249*
X019495Y057249*
X019366*
X019365Y057249*
X019252Y056976*
X019052Y056715*
X018791Y056515*
X018487Y056389*
X018161Y056346*
X017834Y056389*
X017530Y056515*
X017269Y056715*
X017069Y056976*
X016956Y057249*
X016955Y057249*
X016826*
X016825Y057249*
X016712Y056976*
X016512Y056715*
X016251Y056515*
X015947Y056389*
X015621Y056346*
X015294Y056389*
X014990Y056515*
X014729Y056715*
X014529Y056976*
X014403Y057280*
X014360Y057607*
X014403Y057933*
X014529Y058237*
X014729Y058498*
X014990Y058699*
X015294Y058825*
X015621Y058867*
G37*
G36*
X023114Y058603D02*
Y057734D01*
X022245*
X022262Y057869*
X022363Y058113*
X022524Y058323*
X022734Y058484*
X022978Y058585*
X023114Y058603*
G37*
G36*
X025781Y058867D02*
X026107Y058825D01*
X026411Y058699*
X026672Y058498*
X026872Y058237*
X026943Y058065*
X027070Y058091*
Y058857*
X029570*
Y056357*
X027070*
Y057123*
X026943Y057148*
X026872Y056976*
X026806Y056890*
X026790Y056571*
X026789Y056569*
Y056119*
X031786Y051122*
X035560*
X035821Y051088*
X036064Y050987*
X036273Y050827*
X047153Y039946*
X050419*
X050680Y039912*
X050923Y039811*
X051132Y039651*
X052765Y038017*
X052769Y038015*
X052849Y037940*
X052917Y037885*
X052983Y037838*
X053048Y037799*
X053113Y037767*
X053177Y037742*
X053242Y037723*
X053308Y037710*
X053377Y037702*
X053469Y037699*
X053477Y037697*
X053819Y037664*
X054159Y037561*
X054471Y037394*
X054745Y037169*
X054970Y036895*
X055138Y036582*
X055240Y036243*
X055275Y035890*
X055240Y035537*
X055138Y035198*
X055002Y034944*
X055051Y034871*
X055090Y034838*
X055372Y034875*
X055668Y034836*
X055944Y034722*
X056181Y034540*
X056363Y034303*
X056477Y034027*
X056516Y033731*
X056477Y033434*
X056363Y033158*
X056181Y032921*
X055944Y032739*
X055668Y032625*
X055372Y032586*
X055075Y032625*
X054799Y032739*
X054578Y032909*
X054569Y032914*
X054546Y032936*
X054539Y032942*
X054532Y032946*
X054523Y032951*
X054513Y032955*
X054500Y032960*
X054484Y032964*
X054463Y032967*
X054437Y032970*
X054391Y032971*
X054378Y032974*
X052682*
X052669Y032971*
X052623Y032970*
X052597Y032967*
X052576Y032964*
X052560Y032960*
X052547Y032955*
X052537Y032951*
X052528Y032946*
X052521Y032942*
X052514Y032936*
X052491Y032914*
X052482Y032909*
X052261Y032739*
X051985Y032625*
X051689Y032586*
X051392Y032625*
X051116Y032739*
X050879Y032921*
X050697Y033158*
X050583Y033434*
X050544Y033731*
X050583Y034027*
X050697Y034303*
X050879Y034540*
X051116Y034722*
X051392Y034836*
X051689Y034875*
X051834Y034856*
X051915Y034974*
X051795Y035198*
X051693Y035537*
X051659Y035879*
X051657Y035887*
X051654Y035979*
X051646Y036048*
X051633Y036114*
X051614Y036179*
X051589Y036243*
X051557Y036308*
X051518Y036373*
X051472Y036440*
X051416Y036507*
X051341Y036588*
X051339Y036591*
X050001Y037929*
X046736*
X046474Y037963*
X046231Y038064*
X046022Y038224*
X035142Y049105*
X031369*
X031107Y049139*
X030864Y049240*
X030655Y049400*
X025067Y054988*
X024907Y055197*
X024806Y055441*
X024772Y055702*
Y056590*
X024771Y056596*
X024770Y056677*
X024766Y056876*
X024689Y056976*
X024563Y057280*
X024520Y057607*
X024563Y057933*
X024689Y058237*
X024889Y058498*
X025150Y058699*
X025454Y058825*
X025781Y058867*
G37*
G36*
X048133Y061178D02*
X048498Y061130D01*
X048839Y060989*
X049131Y060764*
X049327Y060508*
X049362Y060498*
X049443*
X049478Y060508*
X049674Y060764*
X049966Y060989*
X050307Y061130*
X050673Y061178*
X051038Y061130*
X051379Y060989*
X051671Y060764*
X051895Y060472*
X052007Y060203*
X052144*
X052204Y060348*
X052389Y060589*
X052631Y060774*
X052911Y060890*
X053086Y060913*
Y059766*
Y058618*
X052911Y058641*
X052631Y058758*
X052389Y058943*
X052204Y059184*
X052144Y059329*
X052007*
X051895Y059060*
X051671Y058767*
X051379Y058543*
X051038Y058402*
X050673Y058354*
X050307Y058402*
X049966Y058543*
X049674Y058767*
X049478Y059023*
X049443Y059033*
X049362*
X049327Y059023*
X049131Y058767*
X049118Y058757*
X049067Y058704*
X049022Y058653*
X048986Y058604*
X048957Y058560*
X048934Y058519*
X048918Y058482*
X048906Y058448*
X048898Y058418*
X048894Y058389*
X048892Y058336*
X048889Y058325*
Y057861*
X048863Y057665*
X048788Y057482*
X048667Y057326*
X046762Y055421*
X046606Y055301*
X046423Y055225*
X046228Y055199*
X036458*
X036062Y054803*
Y054732*
X036065Y054720*
X036067Y054671*
X036070Y054645*
X036075Y054621*
X036082Y054598*
X036091Y054575*
X036103Y054551*
X036117Y054527*
X036136Y054500*
X036159Y054472*
X036192Y054438*
X036197Y054434*
X036397Y054173*
X036523Y053869*
X036566Y053543*
X036523Y053216*
X036397Y052912*
X036197Y052651*
X035936Y052451*
X035632Y052325*
X035306Y052282*
X034979Y052325*
X034675Y052451*
X034414Y052651*
X034214Y052912*
X034142Y053084*
X034015Y053059*
Y052293*
X031515*
Y054793*
X034015*
Y054027*
X034142Y054001*
X034214Y054173*
X034414Y054434*
X034419Y054438*
X034452Y054472*
X034475Y054500*
X034494Y054527*
X034508Y054551*
X034520Y054575*
X034529Y054598*
X034536Y054621*
X034541Y054645*
X034544Y054671*
X034546Y054720*
X034549Y054732*
Y055116*
Y055116*
X034562Y055214*
X034575Y055312*
X034650Y055495*
X034771Y055651*
X035610Y056491*
X035766Y056611*
X035949Y056686*
X036145Y056712*
X045914*
X047376Y058174*
Y058325*
X047373Y058336*
X047371Y058389*
X047366Y058418*
X047359Y058448*
X047347Y058482*
X047331Y058519*
X047308Y058560*
X047279Y058604*
X047242Y058653*
X047198Y058704*
X047147Y058757*
X047134Y058767*
X047113Y058795*
X046992Y058754*
Y058366*
X044193*
Y061166*
X046992*
Y060777*
X047113Y060736*
X047134Y060764*
X047426Y060989*
X047767Y061130*
X048133Y061178*
G37*
G36*
X055753D02*
X056118Y061130D01*
X056459Y060989*
X056751Y060764*
X056947Y060508*
X056982Y060498*
X057063*
X057098Y060508*
X057294Y060764*
X057586Y060989*
X057927Y061130*
X058293Y061178*
X058658Y061130*
X058999Y060989*
X059291Y060764*
X059487Y060508*
X059522Y060498*
X059603*
X059638Y060508*
X059834Y060764*
X060126Y060989*
X060467Y061130*
X060833Y061178*
X061198Y061130*
X061539Y060989*
X061831Y060764*
X062027Y060508*
X062062Y060498*
X062143*
X062178Y060508*
X062374Y060764*
X062666Y060989*
X063007Y061130*
X063373Y061178*
X063738Y061130*
X064079Y060989*
X064371Y060764*
X064567Y060508*
X064602Y060498*
X064683*
X064718Y060508*
X064914Y060764*
X065206Y060989*
X065547Y061130*
X065913Y061178*
X066278Y061130*
X066619Y060989*
X066911Y060764*
X067107Y060508*
X067142Y060498*
X067223*
X067258Y060508*
X067454Y060764*
X067746Y060989*
X068087Y061130*
X068453Y061178*
X068818Y061130*
X069159Y060989*
X069451Y060764*
X069647Y060508*
X069682Y060498*
X069763*
X069798Y060508*
X069994Y060764*
X070286Y060989*
X070627Y061130*
X070993Y061178*
X071358Y061130*
X071699Y060989*
X071991Y060764*
X072187Y060508*
X072222Y060498*
X072303*
X072338Y060508*
X072534Y060764*
X072826Y060989*
X073167Y061130*
X073533Y061178*
X073898Y061130*
X074239Y060989*
X074531Y060764*
X074727Y060508*
X074762Y060498*
X074843*
X074878Y060508*
X075074Y060764*
X075366Y060989*
X075707Y061130*
X076073Y061178*
X076438Y061130*
X076779Y060989*
X077071Y060764*
X077267Y060508*
X077302Y060498*
X077383*
X077418Y060508*
X077614Y060764*
X077906Y060989*
X078247Y061130*
X078613Y061178*
X078978Y061130*
X079319Y060989*
X079611Y060764*
X079807Y060508*
X079842Y060498*
X079923*
X079958Y060508*
X080154Y060764*
X080446Y060989*
X080787Y061130*
X081153Y061178*
X081518Y061130*
X081859Y060989*
X082151Y060764*
X082375Y060472*
X082516Y060131*
X082565Y059766*
X082516Y059400*
X082375Y059060*
X082151Y058767*
X081859Y058543*
X081518Y058402*
X081153Y058354*
X080787Y058402*
X080446Y058543*
X080154Y058767*
X079958Y059023*
X079923Y059033*
X079842*
X079807Y059023*
X079611Y058767*
X079319Y058543*
X078978Y058402*
X078613Y058354*
X078247Y058402*
X077906Y058543*
X077614Y058767*
X077418Y059023*
X077383Y059033*
X077302*
X077267Y059023*
X077071Y058767*
X077058Y058757*
X077007Y058704*
X076962Y058653*
X076926Y058604*
X076897Y058560*
X076874Y058519*
X076858Y058482*
X076846Y058448*
X076838Y058418*
X076834Y058389*
X076832Y058336*
X076829Y058325*
Y056189*
X076956Y056146*
X077041Y056257*
X077278Y056439*
X077554Y056553*
X077851Y056592*
X078147Y056553*
X078423Y056439*
X078660Y056257*
X078764Y056122*
X078797Y056092*
X078801Y056085*
X078808Y056084*
X078828Y056082*
X078872Y056080*
X078885Y056077*
X084096*
X084109Y056080*
X084155Y056082*
X084181Y056084*
X084202Y056088*
X084218Y056092*
X084231Y056096*
X084241Y056100*
X084250Y056105*
X084257Y056110*
X084264Y056115*
X084287Y056137*
X084296Y056143*
X084517Y056312*
X084793Y056426*
X085090Y056465*
X085386Y056426*
X085662Y056312*
X085899Y056130*
X086081Y055893*
X086195Y055617*
X086234Y055321*
X086195Y055024*
X086081Y054748*
X085899Y054511*
X085662Y054329*
X085386Y054215*
X085090Y054176*
X084793Y054215*
X084517Y054329*
X084296Y054499*
X084287Y054504*
X084264Y054526*
X084257Y054532*
X084250Y054536*
X084241Y054541*
X084231Y054545*
X084218Y054550*
X084202Y054554*
X084181Y054557*
X084155Y054560*
X084109Y054561*
X084096Y054564*
X078769*
X078755Y054561*
X078705Y054560*
X078671Y054557*
X078640Y054553*
X078612Y054548*
X078587Y054542*
X078565Y054535*
X078544Y054527*
X078525Y054519*
X078508Y054509*
X078477Y054490*
X078456Y054482*
X078423Y054456*
X078147Y054342*
X077851Y054303*
X077554Y054342*
X077278Y054456*
X077041Y054638*
X076935Y054776*
X076803Y054744*
X076728Y054561*
X076607Y054405*
X075464Y053262*
X075308Y053142*
X075125Y053066*
X074930Y053040*
X045796*
X044947Y052192*
X044940Y052179*
X044906Y052144*
X044885Y052119*
X044867Y052095*
X044852Y052073*
X044839Y052052*
X044829Y052032*
X044821Y052014*
X044815Y051995*
X044810Y051977*
X044803Y051942*
X044791Y051912*
X044782Y051849*
X044668Y051573*
X044486Y051336*
X044249Y051154*
X043973Y051040*
X043677Y051001*
X043380Y051040*
X043104Y051154*
X042867Y051336*
X042685Y051573*
X042571Y051849*
X042532Y052146*
X042571Y052442*
X042685Y052718*
X042867Y052955*
X043104Y053137*
X043380Y053251*
X043677Y053290*
X043814Y053272*
X043860Y053275*
X043875Y053273*
X043877Y053274*
X043888Y053282*
X043904Y053295*
X043937Y053325*
X043948Y053332*
X044948Y054332*
X045104Y054452*
X045287Y054527*
X045483Y054553*
X067668*
X067731Y054670*
X067729Y054680*
X067713Y054691*
X067328*
X067132Y054717*
X066950Y054793*
X066793Y054913*
X065378Y056328*
X065257Y056485*
X065182Y056667*
X065156Y056863*
Y056863*
Y058325*
X065153Y058336*
X065151Y058389*
X065146Y058418*
X065139Y058448*
X065127Y058482*
X065111Y058519*
X065088Y058560*
X065059Y058604*
X065022Y058653*
X064978Y058704*
X064927Y058757*
X064914Y058767*
X064718Y059023*
X064683Y059033*
X064602*
X064567Y059023*
X064371Y058767*
X064079Y058543*
X063738Y058402*
X063373Y058354*
X063007Y058402*
X062666Y058543*
X062374Y058767*
X062178Y059023*
X062143Y059033*
X062062*
X062027Y059023*
X061831Y058767*
X061539Y058543*
X061198Y058402*
X060833Y058354*
X060467Y058402*
X060126Y058543*
X059834Y058767*
X059638Y059023*
X059603Y059033*
X059522*
X059487Y059023*
X059291Y058767*
X058999Y058543*
X058658Y058402*
X058293Y058354*
X057927Y058402*
X057586Y058543*
X057294Y058767*
X057098Y059023*
X057063Y059033*
X056982*
X056947Y059023*
X056751Y058767*
X056459Y058543*
X056118Y058402*
X055753Y058354*
X055387Y058402*
X055046Y058543*
X054754Y058767*
X054530Y059060*
X054418Y059329*
X054281*
X054220Y059184*
X054036Y058943*
X053794Y058758*
X053514Y058641*
X053340Y058618*
Y059766*
Y060913*
X053514Y060890*
X053794Y060774*
X054036Y060589*
X054220Y060348*
X054281Y060203*
X054418*
X054530Y060472*
X054754Y060764*
X055046Y060989*
X055387Y061130*
X055753Y061178*
G37*
G36*
X023368Y058603D02*
X023503Y058585D01*
X023747Y058484*
X023957Y058323*
X024117Y058113*
X024219Y057869*
X024236Y057734*
X023368*
Y058603*
G37*
G36*
X045593Y045938D02*
X045958Y045890D01*
X046299Y045749*
X046591Y045524*
X046787Y045268*
X046822Y045258*
X046903*
X046938Y045268*
X047134Y045524*
X047426Y045749*
X047767Y045890*
X048133Y045938*
X048498Y045890*
X048839Y045749*
X049131Y045524*
X049327Y045268*
X049362Y045258*
X049443*
X049478Y045268*
X049674Y045524*
X049966Y045749*
X050307Y045890*
X050673Y045938*
X051038Y045890*
X051379Y045749*
X051671Y045524*
X051867Y045268*
X051902Y045258*
X051983*
X052018Y045268*
X052214Y045524*
X052506Y045749*
X052847Y045890*
X053213Y045938*
X053578Y045890*
X053919Y045749*
X054211Y045524*
X054407Y045268*
X054442Y045258*
X054523*
X054558Y045268*
X054754Y045524*
X055046Y045749*
X055387Y045890*
X055753Y045938*
X056118Y045890*
X056459Y045749*
X056751Y045524*
X056947Y045268*
X056982Y045258*
X057063*
X057098Y045268*
X057294Y045524*
X057586Y045749*
X057927Y045890*
X058293Y045938*
X058658Y045890*
X058999Y045749*
X059291Y045524*
X059487Y045268*
X059522Y045258*
X059603*
X059638Y045268*
X059834Y045524*
X060126Y045749*
X060467Y045890*
X060833Y045938*
X061198Y045890*
X061539Y045749*
X061831Y045524*
X062027Y045268*
X062062Y045258*
X062143*
X062178Y045268*
X062374Y045524*
X062666Y045749*
X063007Y045890*
X063373Y045938*
X063738Y045890*
X064079Y045749*
X064371Y045524*
X064567Y045268*
X064602Y045258*
X064683*
X064718Y045268*
X064914Y045524*
X065206Y045749*
X065547Y045890*
X065913Y045938*
X066278Y045890*
X066619Y045749*
X066911Y045524*
X067107Y045268*
X067142Y045258*
X067223*
X067258Y045268*
X067454Y045524*
X067746Y045749*
X068087Y045890*
X068453Y045938*
X068818Y045890*
X069159Y045749*
X069451Y045524*
X069647Y045268*
X069682Y045258*
X069763*
X069798Y045268*
X069994Y045524*
X070286Y045749*
X070627Y045890*
X070993Y045938*
X071358Y045890*
X071699Y045749*
X071991Y045524*
X072187Y045268*
X072222Y045258*
X072303*
X072338Y045268*
X072534Y045524*
X072826Y045749*
X073167Y045890*
X073533Y045938*
X073898Y045890*
X074239Y045749*
X074531Y045524*
X074727Y045268*
X074762Y045258*
X074843*
X074878Y045268*
X075074Y045524*
X075366Y045749*
X075707Y045890*
X076073Y045938*
X076438Y045890*
X076779Y045749*
X077071Y045524*
X077267Y045268*
X077302Y045258*
X077383*
X077418Y045268*
X077614Y045524*
X077906Y045749*
X078247Y045890*
X078613Y045938*
X078978Y045890*
X079319Y045749*
X079611Y045524*
X079807Y045268*
X079842Y045258*
X079923*
X079958Y045268*
X080154Y045524*
X080446Y045749*
X080787Y045890*
X081153Y045938*
X081518Y045890*
X081859Y045749*
X082151Y045524*
X082375Y045232*
X082516Y044891*
X082565Y044526*
X082516Y044160*
X082375Y043820*
X082151Y043527*
X081859Y043303*
X081518Y043162*
X081153Y043114*
X080787Y043162*
X080446Y043303*
X080154Y043527*
X079958Y043783*
X079923Y043793*
X079842*
X079807Y043783*
X079611Y043527*
X079319Y043303*
X078978Y043162*
X078613Y043114*
X078247Y043162*
X077906Y043303*
X077614Y043527*
X077418Y043783*
X077383Y043793*
X077302*
X077267Y043783*
X077071Y043527*
X076779Y043303*
X076438Y043162*
X076073Y043114*
X075707Y043162*
X075366Y043303*
X075074Y043527*
X074878Y043783*
X074843Y043793*
X074762*
X074727Y043783*
X074531Y043527*
X074239Y043303*
X073898Y043162*
X073533Y043114*
X073167Y043162*
X072826Y043303*
X072534Y043527*
X072338Y043783*
X072303Y043793*
X072222*
X072187Y043783*
X071991Y043527*
X071699Y043303*
X071358Y043162*
X070993Y043114*
X070627Y043162*
X070286Y043303*
X069994Y043527*
X069798Y043783*
X069763Y043793*
X069682*
X069647Y043783*
X069451Y043527*
X069159Y043303*
X068818Y043162*
X068453Y043114*
X068087Y043162*
X067746Y043303*
X067454Y043527*
X067258Y043783*
X067223Y043793*
X067142*
X067107Y043783*
X066911Y043527*
X066619Y043303*
X066278Y043162*
X065913Y043114*
X065547Y043162*
X065206Y043303*
X064914Y043527*
X064718Y043783*
X064683Y043793*
X064602*
X064567Y043783*
X064371Y043527*
X064079Y043303*
X063738Y043162*
X063373Y043114*
X063007Y043162*
X062666Y043303*
X062374Y043527*
X062178Y043783*
X062143Y043793*
X062062*
X062027Y043783*
X061831Y043527*
X061539Y043303*
X061198Y043162*
X060833Y043114*
X060467Y043162*
X060126Y043303*
X059834Y043527*
X059638Y043783*
X059603Y043793*
X059522*
X059487Y043783*
X059291Y043527*
X058999Y043303*
X058658Y043162*
X058293Y043114*
X057927Y043162*
X057586Y043303*
X057294Y043527*
X057098Y043783*
X057063Y043793*
X056982*
X056947Y043783*
X056751Y043527*
X056459Y043303*
X056118Y043162*
X055753Y043114*
X055387Y043162*
X055046Y043303*
X054754Y043527*
X054558Y043783*
X054523Y043793*
X054442*
X054407Y043783*
X054211Y043527*
X053919Y043303*
X053578Y043162*
X053213Y043114*
X052847Y043162*
X052506Y043303*
X052214Y043527*
X052018Y043783*
X051983Y043793*
X051902*
X051867Y043783*
X051671Y043527*
X051379Y043303*
X051038Y043162*
X050673Y043114*
X050307Y043162*
X049966Y043303*
X049674Y043527*
X049478Y043783*
X049443Y043793*
X049362*
X049327Y043783*
X049131Y043527*
X048839Y043303*
X048498Y043162*
X048133Y043114*
X047767Y043162*
X047426Y043303*
X047134Y043527*
X046938Y043783*
X046903Y043793*
X046822*
X046787Y043783*
X046591Y043527*
X046299Y043303*
X045958Y043162*
X045593Y043114*
X045227Y043162*
X044886Y043303*
X044594Y043527*
X044370Y043820*
X044229Y044160*
X044180Y044526*
X044229Y044891*
X044370Y045232*
X044594Y045524*
X044886Y045749*
X045227Y045890*
X045593Y045938*
G37*
G36*
X012465Y050094D02*
X014965D01*
Y049604*
X014976Y049603*
X014990Y049600*
X016598*
X016794Y049574*
X016977Y049499*
X017133Y049379*
Y049379*
X018314Y048197*
X018435Y048041*
X018510Y047858*
X018536Y047663*
Y041227*
X018539Y041215*
X018541Y041165*
X018544Y041139*
X018550Y041112*
X018559Y041086*
X018570Y041059*
X018585Y041029*
X018605Y040998*
X018629Y040964*
X018660Y040927*
X018699Y040887*
X018707Y040881*
X018893Y040639*
X019020Y040673*
Y041254*
X021619*
Y040714*
X021630Y040713*
X021644Y040710*
X023009*
X023022Y040713*
X023068Y040715*
X023094Y040717*
X023115Y040721*
X023131Y040725*
X023144Y040729*
X023154Y040733*
X023163Y040738*
X023170Y040743*
X023177Y040748*
X023200Y040770*
X023209Y040776*
X023430Y040945*
X023706Y041059*
X024003Y041098*
X024299Y041059*
X024575Y040945*
X024812Y040763*
X024994Y040526*
X025108Y040250*
X025147Y039954*
X025108Y039657*
X024994Y039381*
X024812Y039144*
X024575Y038962*
X024299Y038848*
X024003Y038809*
X023706Y038848*
X023430Y038962*
X023209Y039132*
X023200Y039137*
X023177Y039159*
X023170Y039165*
X023163Y039169*
X023154Y039174*
X023144Y039178*
X023131Y039183*
X023115Y039187*
X023094Y039190*
X023068Y039193*
X023022Y039194*
X023009Y039197*
X021644*
X021630Y039194*
X021619Y039194*
Y038654*
X019020*
Y039235*
X018893Y039269*
X018707Y039027*
X018435Y038818*
X018119Y038687*
X017780Y038642*
X017440Y038687*
X017124Y038818*
X016852Y039027*
X016644Y039298*
X016578Y039457*
X016441*
X016375Y039298*
X016167Y039027*
X016136Y039003*
X016123Y038834*
X016122Y038761*
X016121Y038755*
Y033073*
X016122Y033068*
X016127Y032835*
X016133Y032758*
X016248Y032608*
X016314Y032450*
X016451*
X016517Y032608*
X016725Y032880*
X016997Y033088*
X017313Y033219*
X017653Y033264*
X017992Y033219*
X018308Y033088*
X018580Y032880*
X018766Y032638*
X018893Y032672*
Y033253*
X021492*
Y031944*
X021493Y031942*
X021492Y031930*
Y031897*
X021499Y031863*
X021492Y031829*
Y031754*
X021493Y031753*
X021622Y031600*
X021710Y031510*
X021718Y031497*
X022030Y031185*
X025988*
X026000Y031188*
X026049Y031190*
X026075Y031193*
X026099Y031198*
X026122Y031205*
X026145Y031214*
X026169Y031226*
X026194Y031241*
X026220Y031259*
X026248Y031282*
X026282Y031315*
X026286Y031320*
X026547Y031521*
X026851Y031647*
X027178Y031689*
X027504Y031647*
X027808Y031521*
X028069Y031320*
X028269Y031059*
X028395Y030755*
X028438Y030429*
X028395Y030102*
X028269Y029798*
X028069Y029537*
X027881Y029393*
X027924Y029266*
X028427*
Y026766*
X027178*
Y024833*
X030230*
X033517Y028121*
X033519Y028124*
X033649Y028264*
X033688Y028312*
X033721Y028359*
X033746Y028398*
X033762Y028428*
X033770Y028448*
X033773Y028457*
X033775Y028481*
X033780Y028503*
X033805Y028755*
X033891Y029037*
X034030Y029298*
X034218Y029526*
X034446Y029714*
X034707Y029853*
X034989Y029939*
X035283Y029968*
X035330Y029963*
X035354Y029968*
X035375Y029968*
X035378Y029969*
X035394Y029975*
X035422Y029989*
X035458Y030011*
X035496Y030038*
X035615Y030136*
X035679Y030198*
X035683Y030201*
X036441Y030959*
X036418Y031115*
X036246Y031207*
X036018Y031395*
X035830Y031623*
X035691Y031884*
X035605Y032167*
X035576Y032461*
X035605Y032755*
X035691Y033037*
X035830Y033298*
X036018Y033526*
X036246Y033714*
X036507Y033853*
X036789Y033939*
X037084Y033968*
X037378Y033939*
X037660Y033853*
X037921Y033714*
X038149Y033526*
X038337Y033298*
X038476Y033037*
X038562Y032755*
X038591Y032461*
X038562Y032167*
X038476Y031884*
X038337Y031623*
X038305Y031584*
X038359Y031469*
X039408*
X039462Y031584*
X039430Y031623*
X039291Y031884*
X039205Y032167*
X039176Y032461*
X039205Y032755*
X039291Y033037*
X039430Y033298*
X039618Y033526*
X039846Y033714*
X040107Y033853*
X040389Y033939*
X040683Y033968*
X040978Y033939*
X041260Y033853*
X041521Y033714*
X041749Y033526*
X041937Y033298*
X042076Y033037*
X042162Y032755*
X042191Y032461*
X042162Y032167*
X042076Y031884*
X041937Y031623*
X041905Y031584*
X041959Y031469*
X048382*
X049070Y032158*
X049279Y032318*
X049522Y032419*
X049784Y032453*
X070335*
X070569Y032550*
X070866Y032589*
X071162Y032550*
X071438Y032436*
X071675Y032254*
X071857Y032017*
X071971Y031741*
X072010Y031445*
X071971Y031148*
X071857Y030872*
X071675Y030635*
X071438Y030453*
X071162Y030339*
X070866Y030300*
X070569Y030339*
X070335Y030436*
X050201*
X049513Y029747*
X049304Y029587*
X049061Y029486*
X048799Y029452*
X043444*
X043401Y029325*
X043579Y029093*
X043705Y028788*
X043732Y028588*
X042483*
X041235*
X041262Y028788*
X041388Y029093*
X041566Y029325*
X041530Y029430*
X041510Y029452*
X039857*
X039835Y029425*
X039801Y029325*
X039979Y029093*
X040105Y028788*
X040132Y028588*
X038883*
X037635*
X037662Y028788*
X037788Y029093*
X037966Y029325*
X037922Y029452*
X037787*
X037059Y028724*
X037056Y028719*
X036992Y028653*
X036886Y028530*
X036853Y028486*
X036826Y028445*
X036807Y028412*
X036796Y028388*
X036792Y028375*
X036791Y028374*
X036788Y028350*
X036776Y028312*
X036762Y028167*
X036676Y027884*
X036537Y027623*
X036349Y027395*
X036121Y027207*
X035860Y027068*
X035578Y026982*
X035326Y026958*
X035304Y026952*
X035280Y026950*
X035271Y026948*
X035251Y026939*
X035220Y026923*
X035182Y026898*
X035140Y026869*
X035020Y026767*
X034954Y026703*
X034950Y026701*
X031361Y023111*
X031152Y022951*
X030909Y022850*
X030647Y022816*
X027173*
Y021661*
X027178Y021656*
X027504Y021614*
X027808Y021488*
X028069Y021287*
X028269Y021026*
X028395Y020722*
X028438Y020396*
X028395Y020069*
X028269Y019765*
X028069Y019504*
X027808Y019304*
X027504Y019178*
X027178Y019135*
X026851Y019178*
X026547Y019304*
X026286Y019504*
X026282Y019510*
X026248Y019542*
X026220Y019565*
X026194Y019584*
X026169Y019599*
X026145Y019610*
X026122Y019619*
X026099Y019626*
X026075Y019631*
X026049Y019634*
X026000Y019636*
X025988Y019639*
X023749*
X023553Y019665*
X023370Y019741*
X023214Y019861*
X020654Y022421*
X020643Y022428*
X020458Y022599*
X020398Y022647*
X020391Y022652*
X020316*
X020282Y022645*
X020248Y022652*
X020216*
X020203Y022651*
X020201Y022652*
X018893*
Y023233*
X018766Y023267*
X018580Y023025*
X018308Y022816*
X017992Y022685*
X017653Y022640*
X017313Y022685*
X016997Y022816*
X016725Y023025*
X016517Y023296*
X016386Y023612*
X016341Y023952*
X016386Y024291*
X016517Y024607*
X016725Y024879*
X016733Y024885*
X016772Y024925*
X016803Y024962*
X016827Y024996*
X016847Y025027*
X016862Y025057*
X016866Y025066*
X013054Y028878*
X013054*
X012933Y029034*
X012858Y029217*
X012832Y029413*
Y031088*
X012832Y031089*
X012806Y031285*
Y041198*
X012832Y041393*
X012907Y041576*
X013028Y041733*
X013868Y042573*
X014025Y042694*
X014208Y042769*
X014403Y042795*
X015695*
X015890Y042769*
X016073Y042694*
X016229Y042573*
X016230*
X016906Y041897*
X017023Y041946*
Y047349*
X016285Y048087*
X014990*
X014976Y048084*
X014965Y048084*
Y047594*
X014199*
X014174Y047467*
X014346Y047396*
X014607Y047195*
X014807Y046934*
X014933Y046630*
X014976Y046304*
X014933Y045977*
X014807Y045673*
X014607Y045412*
X014346Y045212*
X014042Y045086*
X013716Y045043*
X013389Y045086*
X013085Y045212*
X012824Y045412*
X012624Y045673*
X012498Y045977*
X012455Y046304*
X012498Y046630*
X012624Y046934*
X012824Y047195*
X013085Y047396*
X013257Y047467*
X013232Y047594*
X012465*
Y050094*
G37*
G36*
X035306Y048199D02*
X035632Y048157D01*
X035936Y048031*
X036197Y047830*
X036397Y047569*
X036523Y047265*
X036566Y046939*
X036523Y046612*
X036397Y046308*
X036197Y046047*
X035936Y045847*
X035632Y045721*
X035306Y045678*
X034979Y045721*
X034675Y045847*
X034414Y046047*
X034214Y046308*
X034142Y046480*
X034015Y046455*
Y045689*
X031515*
Y048189*
X034015*
Y047423*
X034142Y047397*
X034214Y047569*
X034414Y047830*
X034675Y048031*
X034979Y048157*
X035306Y048199*
G37*
G36*
X022245Y057480D02*
X023114D01*
Y056611*
X022978Y056629*
X022734Y056730*
X022524Y056891*
X022363Y057100*
X022262Y057345*
X022245Y057480*
G37*
G36*
X023368D02*
X024236D01*
X024219Y057345*
X024117Y057100*
X023957Y056891*
X023747Y056730*
X023503Y056629*
X023368Y056611*
Y057480*
G37*
G36*
X025927Y039299D02*
X028427D01*
Y036799*
X025927*
Y039299*
G37*
G36*
X029845Y031425D02*
X029980Y031407D01*
X030224Y031306*
X030434Y031145*
X030594Y030935*
X030696Y030691*
X030713Y030556*
X029845*
Y031425*
G37*
G36*
X028722Y030302D02*
X029591D01*
Y029433*
X029455Y029451*
X029211Y029552*
X029001Y029713*
X028840Y029922*
X028739Y030167*
X028722Y030302*
G37*
G36*
X029591Y031425D02*
Y030556D01*
X028722*
X028739Y030691*
X028840Y030935*
X029001Y031145*
X029211Y031306*
X029455Y031407*
X029591Y031425*
G37*
G36*
X082042Y031445D02*
X082910D01*
X082893Y031310*
X082791Y031065*
X082631Y030856*
X082421Y030695*
X082177Y030594*
X082042Y030576*
Y031445*
G37*
G36*
X089662D02*
X090530D01*
X090513Y031310*
X090411Y031065*
X090251Y030856*
X090041Y030695*
X089797Y030594*
X089662Y030576*
Y031445*
G37*
G36*
X029845Y030302D02*
X030713D01*
X030696Y030167*
X030594Y029922*
X030434Y029713*
X030224Y029552*
X029980Y029451*
X029845Y029433*
Y030302*
G37*
G36*
X089535Y030292D02*
X089861Y030250D01*
X090165Y030124*
X090426Y029923*
X090626Y029662*
X090752Y029358*
X090795Y029032*
X090752Y028705*
X090626Y028401*
X090426Y028140*
X090165Y027940*
X089861Y027814*
X089535Y027771*
X089208Y027814*
X088904Y027940*
X088643Y028140*
X088443Y028401*
X088317Y028705*
X088274Y029032*
X088317Y029358*
X088443Y029662*
X088643Y029923*
X088904Y030124*
X089208Y030250*
X089535Y030292*
G37*
G36*
X041235Y028334D02*
X042356D01*
Y027213*
X042156Y027239*
X041851Y027365*
X041589Y027566*
X041388Y027828*
X041262Y028133*
X041235Y028334*
G37*
G36*
X080664Y030282D02*
X083164D01*
Y027782*
X080664*
Y030282*
G37*
G36*
X029591Y029012D02*
Y028143D01*
X028722*
X028739Y028278*
X028840Y028522*
X029001Y028732*
X029211Y028893*
X029455Y028994*
X029591Y029012*
G37*
G36*
X029845D02*
X029980Y028994D01*
X030224Y028893*
X030434Y028732*
X030594Y028522*
X030696Y028278*
X030713Y028143*
X029845*
Y029012*
G37*
G36*
X088539Y031445D02*
X089408D01*
Y030576*
X089272Y030594*
X089028Y030695*
X088818Y030856*
X088657Y031065*
X088556Y031310*
X088539Y031445*
G37*
G36*
X089535Y036896D02*
X089861Y036854D01*
X090165Y036728*
X090426Y036527*
X090626Y036266*
X090752Y035962*
X090795Y035636*
X090752Y035309*
X090626Y035005*
X090426Y034744*
X090165Y034544*
X089861Y034418*
X089535Y034375*
X089208Y034418*
X088904Y034544*
X088643Y034744*
X088443Y035005*
X088317Y035309*
X088274Y035636*
X088317Y035962*
X088443Y036266*
X088643Y036527*
X088904Y036728*
X089208Y036854*
X089535Y036896*
G37*
G36*
X047017Y035763D02*
X048439D01*
Y034341*
X048262Y034358*
X047969Y034447*
X047699Y034591*
X047462Y034786*
X047268Y035022*
X047124Y035292*
X047035Y035585*
X047017Y035763*
G37*
G36*
X080664Y036886D02*
X083164D01*
Y034386*
X080664*
Y036886*
G37*
G36*
X048439Y037439D02*
Y036017D01*
X047017*
X047035Y036194*
X047124Y036487*
X047268Y036757*
X047462Y036994*
X047699Y037188*
X047969Y037332*
X048262Y037421*
X048439Y037439*
G37*
G36*
X048693D02*
X048871Y037421D01*
X049164Y037332*
X049434Y037188*
X049671Y036994*
X049865Y036757*
X050009Y036487*
X050098Y036194*
X050116Y036017*
X048693*
Y037439*
G37*
G36*
Y035763D02*
X050116D01*
X050098Y035585*
X050009Y035292*
X049865Y035022*
X049671Y034786*
X049434Y034591*
X049164Y034447*
X048871Y034358*
X048693Y034341*
Y035763*
G37*
G36*
X089662Y032568D02*
X089797Y032550D01*
X090041Y032449*
X090251Y032288*
X090411Y032078*
X090513Y031834*
X090530Y031699*
X089662*
Y032568*
G37*
G36*
X080919Y031445D02*
X081788D01*
Y030576*
X081652Y030594*
X081408Y030695*
X081198Y030856*
X081037Y031065*
X080936Y031310*
X080919Y031445*
G37*
G36*
X082042Y032568D02*
X082177Y032550D01*
X082421Y032449*
X082631Y032288*
X082791Y032078*
X082893Y031834*
X082910Y031699*
X082042*
Y032568*
G37*
G36*
X081788D02*
Y031699D01*
X080919*
X080936Y031834*
X081037Y032078*
X081198Y032288*
X081408Y032449*
X081652Y032550*
X081788Y032568*
G37*
G36*
X089408D02*
Y031699D01*
X088539*
X088556Y031834*
X088657Y032078*
X088818Y032288*
X089028Y032449*
X089272Y032550*
X089408Y032568*
G37*
%LNfilm_bottom_layer-4*%
%LPC*%
G54D30*
X089535Y044272D02*
X086868D01*
X087503Y019358D02*
X085883D01*
X086868Y044272D02*
X084455Y041859D01*
X085883Y019358D02*
X081793Y015268D01*
X085090Y055321D02*
X077978D01*
X084455Y021285D02*
Y041859D01*
Y021285D02*
X082527Y019358D01*
X079756D01*
X081793Y015268D02*
X077680D01*
X079756Y019358D02*
X079629Y019485D01*
X079756Y021898D02*
Y025741D01*
Y021898D02*
X079629Y022025D01*
Y019485D02*
X077959D01*
X079629Y022025D02*
X076910D01*
X077978Y055321D02*
X077851Y055448D01*
X077959Y019485D02*
X073496Y023948D01*
X077680Y015268D02*
X073590Y019358D01*
X076910Y022025D02*
X073987Y024948D01*
X076073Y054940D02*
Y059766D01*
Y054940D02*
X074930Y053797D01*
X045483D01*
X073987Y024948D02*
X070464D01*
X073590Y019358D02*
X072009D01*
X073496Y023948D02*
X070879D01*
X066416Y019485D01*
G54D31*
X070866Y031445D02*
X049784D01*
G54D30*
X070464Y024948D02*
X067541Y022025D01*
X068707Y055448D02*
X067328D01*
X067541Y022025D02*
X064389D01*
X067328Y055448D02*
X065913Y056863D01*
X066416Y019485D02*
X064389D01*
X065913Y056863D02*
Y059766D01*
X055372Y033731D02*
X051689D01*
G54D31*
X053467Y035890D02*
X050419Y038938D01*
X046736D01*
X049784Y031445D02*
X048799Y030461D01*
X041512D01*
G54D30*
X048133Y057861D02*
Y059766D01*
Y057861D02*
X046228Y055956D01*
G54D31*
X046736Y038938D02*
X035560Y050114D01*
G54D30*
X046228Y055956D02*
X036145D01*
X045483Y053797D02*
X043832Y052146D01*
X043677D01*
G54D31*
X041512Y030461D02*
D01*
X039712D01*
D01*
X037369D01*
X035369Y028461D01*
G54D30*
X036145Y055956D02*
X035306Y055116D01*
G54D31*
X035560Y050114D02*
X031369D01*
X035369Y028461D02*
X035283D01*
G54D30*
X035306Y053543D02*
Y055116D01*
G54D31*
X035283Y028461D02*
X030647Y023825D01*
X031369Y050114D02*
X025781Y055702D01*
X030647Y023825D02*
X024638D01*
G54D30*
X027178Y020396D02*
X023749D01*
X027178Y030429D02*
X021717D01*
G54D31*
X025781Y055702D02*
Y057607D01*
X024638Y023825D02*
X019959Y028503D01*
G54D30*
X024003Y039954D02*
X020320D01*
X023749Y020396D02*
X020193Y023952D01*
X021717Y030429D02*
X020193Y031953D01*
G54D31*
X019959Y028503D02*
X016530D01*
G54D30*
X017780Y039954D02*
Y047663D01*
Y039954D02*
X015695Y042039D01*
X017780Y047663D02*
X016598Y048844D01*
X017653Y023952D02*
Y025349D01*
X013589Y029413D01*
X016598Y048844D02*
X013716D01*
G54D31*
X016530Y028503D02*
X015113Y029921D01*
G54D30*
X015695Y042039D02*
X014403D01*
G54D31*
X015240Y039954D02*
X015113Y039827D01*
Y029921D02*
Y031953D01*
Y039827D01*
G54D30*
X014403Y042039D02*
X013562Y041198D01*
X013589Y029413D02*
Y031259D01*
X013562Y031285D01*
Y041198D01*
G54D38*
X089535Y029032D03*
Y031572D03*
Y035636D03*
Y038176D03*
G54D37*
X089535Y041732D03*
G54D38*
X089535Y044272D03*
G54D39*
X087503Y016818D03*
Y019358D03*
G54D40*
X087503Y021898D03*
G54D37*
X081915Y029032D03*
G54D38*
X081915Y031572D03*
G54D37*
X081915Y035636D03*
G54D38*
X081915Y038176D03*
G54D35*
X081153Y044526D03*
Y059766D03*
G54D39*
X079756Y016818D03*
Y019358D03*
G54D40*
X079756Y021898D03*
G54D35*
X078613Y044526D03*
Y059766D03*
X076073Y044526D03*
Y059766D03*
X073533Y044526D03*
Y059766D03*
G54D39*
X072009Y016818D03*
Y019358D03*
G54D40*
X072009Y021898D03*
G54D35*
X070993Y044526D03*
Y059766D03*
X068453Y044526D03*
Y059766D03*
X065913Y044526D03*
Y059766D03*
G54D39*
X064389Y016945D03*
Y019485D03*
G54D40*
X064389Y022025D03*
G54D35*
X063373Y044526D03*
Y059766D03*
X060833Y044526D03*
Y059766D03*
X058293Y044526D03*
Y059766D03*
G54D41*
X056642Y017856D03*
G54D35*
X055753Y044526D03*
Y059766D03*
G54D22*
X053467Y035890D03*
G54D35*
X053213Y044526D03*
Y059766D03*
G54D22*
X050966Y025890D03*
G54D35*
X050673Y044526D03*
Y059766D03*
G54D22*
X048566Y035890D03*
G54D35*
X048133Y044526D03*
Y059766D03*
G54D25*
X046182Y017856D03*
G54D35*
X045593Y044526D03*
G54D36*
X045593Y059766D03*
G54D25*
X042483Y028461D03*
G54D34*
X041021Y014485D03*
G54D33*
X041020Y019485D03*
G54D25*
X040683Y032461D03*
X038883Y028461D03*
X037084Y032461D03*
G54D38*
X035306Y046939D03*
Y053543D03*
G54D25*
X035283Y028461D03*
G54D34*
X034036Y014485D03*
G54D33*
X034036Y019485D03*
G54D37*
X032766Y046939D03*
Y053543D03*
G54D38*
X029718Y020396D03*
Y028016D03*
Y030429D03*
Y038049D03*
G54D37*
X029083Y015062D03*
X028321Y057607D03*
G54D38*
X027178Y020396D03*
G54D37*
X027178Y028016D03*
G54D38*
X027178Y030429D03*
G54D37*
X027178Y038049D03*
G54D38*
X026543Y015062D03*
X025781Y057607D03*
X023241D03*
X020701D03*
G54D40*
X020320Y039954D03*
X020193Y016332D03*
Y023952D03*
Y031953D03*
G54D38*
X018161Y057607D03*
G54D39*
X017780Y039954D03*
X017653Y016332D03*
Y023952D03*
Y031953D03*
G54D38*
X015621Y057607D03*
G54D39*
X015240Y039954D03*
X015113Y016332D03*
Y023952D03*
Y031953D03*
G54D38*
X013716Y046304D03*
G54D37*
X013716Y048844D03*
G36*
X080995Y019608D02*
X080923Y019611D01*
X080852Y019620*
X080782Y019636*
X080713Y019657*
X080646Y019685*
X080580Y019719*
X080515Y019760*
X080451Y019806*
X080388Y019859*
X080327Y019918*
Y018798*
X080388Y018857*
X080451Y018909*
X080515Y018956*
X080580Y018996*
X080646Y019030*
X080713Y019058*
X080782Y019080*
X080852Y019095*
X080923Y019105*
X080995Y019108*
Y019608*
G37*
G36*
X078485Y019235D02*
X078559Y019231D01*
X078630Y019221*
X078699Y019204*
X078765Y019180*
X078828Y019150*
X078888Y019113*
X078946Y019068*
X079001Y019018*
X079053Y018960*
X079103Y018895*
X079280Y020001*
X079208Y019951*
X079065Y019865*
X078993Y019831*
X078922Y019801*
X078851Y019777*
X078781Y019759*
X078710Y019745*
X078640Y019737*
X078570Y019735*
X078485Y019235*
G37*
G36*
X088377Y044022D02*
X088447Y044019D01*
X088515Y044011*
X088581Y043997*
X088646Y043978*
X088709Y043953*
X088770Y043923*
X088830Y043887*
X088888Y043846*
X088944Y043799*
X088999Y043747*
Y044797*
X088944Y044744*
X088888Y044698*
X088830Y044656*
X088770Y044621*
X088709Y044590*
X088646Y044566*
X088581Y044546*
X088515Y044533*
X088447Y044524*
X088377Y044522*
Y044022*
G37*
G36*
X065628Y019735D02*
X065556Y019738D01*
X065485Y019747*
X065415Y019763*
X065346Y019784*
X065279Y019812*
X065213Y019846*
X065148Y019887*
X065084Y019933*
X065021Y019986*
X064960Y020045*
Y018925*
X065021Y018984*
X065084Y019036*
X065148Y019083*
X065213Y019123*
X065279Y019157*
X065346Y019185*
X065415Y019207*
X065485Y019222*
X065556Y019232*
X065628Y019235*
Y019735*
G37*
G36*
X017529Y041194D02*
X017526Y041121D01*
X017517Y041050*
X017502Y040980*
X017480Y040912*
X017452Y040844*
X017418Y040778*
X017378Y040713*
X017331Y040649*
X017278Y040586*
X017219Y040525*
X018339*
X018281Y040586*
X018228Y040649*
X018181Y040713*
X018141Y040778*
X018107Y040844*
X018079Y040912*
X018057Y040980*
X018042Y041050*
X018033Y041121*
X018029Y041194*
X017529*
G37*
G36*
X016726Y040654D02*
X016775Y040600D01*
X016819Y040543*
X016857Y040483*
X016890Y040419*
X016918Y040352*
X016941Y040281*
X016959Y040206*
X016971Y040128*
X016978Y040047*
X016980Y039962*
X017771Y040754*
X017686Y040755*
X017605Y040762*
X017527Y040775*
X017452Y040792*
X017381Y040815*
X017314Y040843*
X017250Y040876*
X017190Y040915*
X017133Y040958*
X017080Y041007*
X016726Y040654*
G37*
G36*
X017402Y025192D02*
X017399Y025119D01*
X017390Y025048*
X017375Y024978*
X017353Y024910*
X017325Y024842*
X017291Y024776*
X017251Y024711*
X017204Y024647*
X017151Y024584*
X017092Y024523*
X018212*
X018154Y024584*
X018101Y024647*
X018054Y024711*
X018014Y024776*
X017980Y024842*
X017952Y024910*
X017930Y024978*
X017915Y025048*
X017906Y025119*
X017902Y025192*
X017402*
G37*
G36*
X014962Y049094D02*
X014867Y049096D01*
X014781Y049104*
X014706Y049116*
X014640Y049134*
X014585Y049156*
X014540Y049184*
X014505Y049216*
X014480Y049254*
X014464Y049296*
X014459Y049344*
Y048344*
X014464Y048391*
X014480Y048434*
X014505Y048471*
X014540Y048504*
X014585Y048531*
X014640Y048554*
X014706Y048571*
X014781Y048584*
X014867Y048591*
X014962Y048594*
Y049094*
G37*
G36*
X054407Y033481D02*
X054470Y033479D01*
X054530Y033473*
X054587Y033463*
X054642Y033450*
X054695Y033432*
X054745Y033411*
X054792Y033385*
X054837Y033356*
X054879Y033323*
X054918Y033286*
Y034175*
X054879Y034138*
X054837Y034105*
X054792Y034076*
X054745Y034051*
X054695Y034029*
X054642Y034012*
X054587Y033998*
X054530Y033988*
X054470Y033983*
X054407Y033981*
Y033481*
G37*
G36*
X052653Y033981D02*
X052590Y033983D01*
X052530Y033988*
X052473Y033998*
X052418Y034012*
X052365Y034029*
X052315Y034051*
X052268Y034076*
X052223Y034105*
X052181Y034138*
X052142Y034175*
Y033286*
X052181Y033323*
X052223Y033356*
X052268Y033385*
X052315Y033411*
X052365Y033432*
X052418Y033450*
X052473Y033463*
X052530Y033473*
X052590Y033479*
X052653Y033481*
Y033981*
G37*
G36*
X080005Y024776D02*
X080007Y024839D01*
X080013Y024899*
X080023Y024957*
X080037Y025012*
X080054Y025064*
X080076Y025114*
X080101Y025161*
X080130Y025206*
X080163Y025248*
X080200Y025287*
X079311*
X079348Y025248*
X079381Y025206*
X079410Y025161*
X079435Y025114*
X079457Y025064*
X079474Y025012*
X079488Y024957*
X079498Y024899*
X079504Y024839*
X079505Y024776*
X080005*
G37*
G36*
X079505Y023195D02*
X079503Y023099D01*
X079495Y023014*
X079483Y022938*
X079465Y022873*
X079443Y022817*
X079415Y022772*
X079383Y022737*
X079345Y022712*
X079303Y022697*
X079256Y022692*
X080255*
X080208Y022697*
X080165Y022712*
X080128Y022737*
X080095Y022772*
X080068Y022817*
X080045Y022873*
X080028Y022938*
X080015Y023014*
X080008Y023099*
X080005Y023195*
X079505*
G37*
G36*
X078459Y021775D02*
X078554Y021772D01*
X078640Y021765*
X078715Y021752*
X078780Y021735*
X078836Y021712*
X078881Y021685*
X078916Y021652*
X078941Y021615*
X078957Y021572*
X078962Y021525*
Y022525*
X078957Y022477*
X078941Y022435*
X078916Y022397*
X078881Y022365*
X078836Y022337*
X078780Y022315*
X078715Y022297*
X078640Y022285*
X078554Y022277*
X078459Y022275*
Y021775*
G37*
G36*
X065685Y022275D02*
X065590Y022277D01*
X065504Y022285*
X065429Y022297*
X065363Y022315*
X065308Y022337*
X065263Y022365*
X065228Y022397*
X065203Y022435*
X065187Y022477*
X065182Y022525*
Y021525*
X065187Y021572*
X065203Y021615*
X065228Y021652*
X065263Y021685*
X065308Y021712*
X065363Y021735*
X065429Y021752*
X065504Y021765*
X065590Y021772*
X065685Y021775*
Y022275*
G37*
G36*
X023038Y039704D02*
X023101Y039702D01*
X023161Y039696*
X023218Y039686*
X023273Y039673*
X023326Y039655*
X023376Y039634*
X023423Y039608*
X023468Y039579*
X023510Y039546*
X023549Y039509*
Y040398*
X023510Y040361*
X023468Y040328*
X023423Y040299*
X023376Y040274*
X023326Y040252*
X023273Y040235*
X023218Y040221*
X023161Y040211*
X023101Y040206*
X023038Y040204*
Y039704*
G37*
G36*
X021616Y040204D02*
X021521Y040206D01*
X021435Y040214*
X021360Y040226*
X021294Y040244*
X021239Y040266*
X021194Y040294*
X021159Y040326*
X021134Y040364*
X021118Y040406*
X021113Y040454*
Y039454*
X021118Y039501*
X021134Y039544*
X021159Y039581*
X021194Y039614*
X021239Y039641*
X021294Y039664*
X021360Y039681*
X021435Y039694*
X021521Y039701*
X021616Y039704*
Y040204*
G37*
G36*
X026020Y020146D02*
X026090Y020143D01*
X026158Y020135*
X026224Y020121*
X026289Y020102*
X026352Y020077*
X026413Y020047*
X026473Y020011*
X026531Y019970*
X026587Y019923*
X026642Y019871*
Y020921*
X026587Y020868*
X026531Y020822*
X026473Y020780*
X026413Y020745*
X026352Y020714*
X026289Y020690*
X026224Y020670*
X026158Y020657*
X026090Y020648*
X026020Y020646*
Y020146*
G37*
G36*
X021343Y023155D02*
X021244Y023257D01*
X021088Y023441*
X021032Y023522*
X020989Y023597*
X020961Y023664*
X020947Y023724*
Y023777*
X020961Y023823*
X020989Y023862*
X020282Y023155*
X020321Y023183*
X020367Y023197*
X020420*
X020480Y023183*
X020547Y023155*
X020622Y023112*
X020703Y023056*
X020791Y022985*
X020989Y022801*
X021343Y023155*
G37*
G36*
Y031156D02*
X021244Y031258D01*
X021088Y031442*
X021032Y031523*
X020989Y031598*
X020961Y031665*
X020947Y031725*
Y031778*
X020961Y031824*
X020989Y031863*
X020282Y031156*
X020321Y031184*
X020367Y031198*
X020420*
X020480Y031184*
X020547Y031156*
X020622Y031113*
X020703Y031057*
X020791Y030986*
X020989Y030802*
X021343Y031156*
G37*
G36*
X026020Y030179D02*
X026090Y030176D01*
X026158Y030168*
X026224Y030154*
X026289Y030135*
X026352Y030110*
X026413Y030080*
X026473Y030044*
X026531Y030003*
X026587Y029956*
X026642Y029904*
Y030954*
X026587Y030901*
X026531Y030855*
X026473Y030813*
X026413Y030778*
X026352Y030747*
X026289Y030723*
X026224Y030703*
X026158Y030690*
X026090Y030681*
X026020Y030679*
Y030179*
G37*
G36*
X034600Y027070D02*
X034678Y027145D01*
X034826Y027271*
X034897Y027322*
X034965Y027365*
X035031Y027400*
X035095Y027427*
X035157Y027446*
X035216Y027457*
X035273Y027461*
X034284Y028451*
X034280Y028394*
X034269Y028334*
X034250Y028272*
X034222Y028209*
X034187Y028142*
X034144Y028074*
X034093Y028003*
X034035Y027930*
X033893Y027778*
X034600Y027070*
G37*
G36*
X015612Y038766D02*
X015613Y038856D01*
X015635Y039135*
X015645Y039185*
X015656Y039226*
X015670Y039259*
X015685Y039284*
X015702Y039301*
X014596Y039479*
X014599Y039469*
X014602Y039451*
X014604Y039424*
X014611Y039223*
X014613Y038977*
X015612Y038766*
G37*
G36*
X014613Y033057D02*
X014612Y032966D01*
X014591Y032638*
X014583Y032597*
X014574Y032564*
X014564Y032540*
X014552Y032524*
X015672*
X015661Y032540*
X015651Y032564*
X015642Y032597*
X015634Y032638*
X015627Y032687*
X015618Y032810*
X015612Y033057*
X014613*
G37*
G36*
X015612Y030848D02*
X015613Y030939D01*
X015634Y031268*
X015642Y031309*
X015651Y031341*
X015661Y031365*
X015672Y031381*
X014552*
X014564Y031365*
X014574Y031341*
X014583Y031309*
X014591Y031268*
X014597Y031219*
X014607Y031095*
X014613Y030848*
X015612*
G37*
G36*
X036032Y029831D02*
X035955Y029756D01*
X035806Y029632*
X035735Y029583*
X035666Y029541*
X035600Y029508*
X035535Y029483*
X035473Y029467*
X035412Y029458*
X035354Y029458*
X036282Y028410*
X036289Y028465*
X036303Y028523*
X036325Y028583*
X036354Y028646*
X036391Y028711*
X036436Y028779*
X036488Y028849*
X036615Y028996*
X036690Y029074*
X036032Y029831*
G37*
G36*
X051713Y036936D02*
X051800Y036843D01*
X051878Y036748*
X051947Y036650*
X052006Y036550*
X052056Y036448*
X052097Y036344*
X052128Y036237*
X052150Y036128*
X052163Y036016*
X052167Y035903*
X053453Y037190*
X053340Y037193*
X053228Y037206*
X053119Y037228*
X053013Y037259*
X052908Y037300*
X052806Y037350*
X052706Y037410*
X052608Y037478*
X052513Y037556*
X052420Y037643*
X051713Y036936*
G37*
G36*
X026280Y056598D02*
X026305Y057071D01*
X025255*
X025260Y057062*
X025264Y057044*
X025268Y057018*
X025274Y056940*
X025280Y056683*
X025281Y056598*
X026280*
G37*
G36*
X084125Y055071D02*
X084188Y055069D01*
X084248Y055063*
X084305Y055053*
X084360Y055040*
X084413Y055022*
X084463Y055001*
X084510Y054975*
X084555Y054946*
X084597Y054913*
X084636Y054876*
Y055765*
X084597Y055728*
X084555Y055695*
X084510Y055666*
X084463Y055641*
X084413Y055619*
X084360Y055602*
X084305Y055588*
X084248Y055578*
X084188Y055573*
X084125Y055571*
Y055071*
G37*
G36*
X078854Y055571D02*
X078791Y055573D01*
X078731Y055580*
X078675Y055591*
X078622Y055606*
X078573Y055626*
X078528Y055651*
X078486Y055679*
X078448Y055713*
X078414Y055750*
X078384Y055793*
X078206Y054921*
X078251Y054950*
X078298Y054975*
X078347Y054998*
X078398Y055017*
X078450Y055033*
X078505Y055047*
X078562Y055057*
X078620Y055065*
X078680Y055069*
X078742Y055071*
X078854Y055571*
G37*
G36*
X067742Y055198D02*
X067805Y055196D01*
X067865Y055190*
X067922Y055180*
X067977Y055167*
X068030Y055149*
X068080Y055128*
X068127Y055102*
X068172Y055073*
X068214Y055040*
X068253Y055003*
Y055892*
X068214Y055855*
X068172Y055822*
X068127Y055793*
X068080Y055768*
X068030Y055746*
X067977Y055729*
X067922Y055715*
X067865Y055705*
X067805Y055700*
X067742Y055698*
Y055198*
G37*
G36*
X066162Y058361D02*
X066166Y058439D01*
X066178Y058516*
X066197Y058593*
X066223Y058670*
X066257Y058746*
X066299Y058822*
X066349Y058898*
X066406Y058973*
X066470Y059048*
X066542Y059123*
X065282*
X065355Y059048*
X065419Y058973*
X065476Y058898*
X065526Y058822*
X065567Y058746*
X065602Y058670*
X065628Y058593*
X065647Y058516*
X065659Y058439*
X065662Y058361*
X066162*
G37*
G36*
X044285Y052952D02*
X044238Y052909D01*
X044191Y052871*
X044143Y052839*
X044095Y052812*
X044046Y052791*
X043997Y052776*
X043947Y052766*
X043896Y052762*
X043844Y052763*
X043792Y052770*
X044303Y052042*
X044314Y052095*
X044328Y052147*
X044345Y052197*
X044367Y052248*
X044392Y052297*
X044420Y052345*
X044452Y052393*
X044488Y052440*
X044527Y052486*
X044570Y052531*
X044285Y052952*
G37*
G36*
X076322Y058361D02*
X076326Y058439D01*
X076338Y058516*
X076357Y058593*
X076383Y058670*
X076417Y058746*
X076459Y058822*
X076509Y058898*
X076566Y058973*
X076630Y059048*
X076702Y059123*
X075442*
X075515Y059048*
X075579Y058973*
X075636Y058898*
X075686Y058822*
X075727Y058746*
X075762Y058670*
X075788Y058593*
X075807Y058516*
X075819Y058439*
X075822Y058361*
X076322*
G37*
G36*
X048382D02*
X048386Y058439D01*
X048398Y058516*
X048417Y058593*
X048443Y058670*
X048477Y058746*
X048519Y058822*
X048569Y058898*
X048626Y058973*
X048690Y059048*
X048762Y059123*
X047502*
X047575Y059048*
X047639Y058973*
X047696Y058898*
X047746Y058822*
X047787Y058746*
X047822Y058670*
X047848Y058593*
X047867Y058516*
X047879Y058439*
X047882Y058361*
X048382*
G37*
G36*
X035055Y054700D02*
X035053Y054630D01*
X035044Y054562*
X035031Y054496*
X035011Y054431*
X034987Y054368*
X034956Y054307*
X034921Y054247*
X034879Y054189*
X034833Y054133*
X034780Y054078*
X035830*
X035778Y054133*
X035731Y054189*
X035690Y054247*
X035654Y054307*
X035624Y054368*
X035599Y054431*
X035580Y054496*
X035566Y054562*
X035558Y054630*
X035555Y054700*
X035055*
G37*
G36*
X086263Y019108D02*
X086335Y019105D01*
X086406Y019095*
X086476Y019080*
X086545Y019058*
X086612Y019030*
X086678Y018996*
X086743Y018956*
X086807Y018909*
X086870Y018857*
X086931Y018798*
Y019918*
X086870Y019859*
X086807Y019806*
X086743Y019760*
X086678Y019719*
X086612Y019685*
X086545Y019657*
X086476Y019636*
X086406Y019620*
X086335Y019611*
X086263Y019608*
Y019108*
G37*
G36*
X073248Y019608D02*
X073176Y019611D01*
X073105Y019620*
X073035Y019636*
X072966Y019657*
X072899Y019685*
X072833Y019719*
X072768Y019760*
X072704Y019806*
X072641Y019859*
X072580Y019918*
Y018798*
X072641Y018857*
X072704Y018909*
X072768Y018956*
X072833Y018996*
X072899Y019030*
X072966Y019058*
X073035Y019080*
X073105Y019095*
X073176Y019105*
X073248Y019108*
Y019608*
G37*
G54D25*
X091313Y014173D03*
Y062052D03*
G54D42*
X085090Y055321D03*
X079756Y025741D03*
X077851Y055448D03*
X070866Y031445D03*
X068707Y055448D03*
X055372Y033731D03*
X051689D03*
X043677Y052146D03*
X024003Y039954D03*
G54D25*
X010541Y014173D03*
Y062052D03*
M02*